Coordinates
version=1
nRows=9
nColumns=24
inDegrees=yes

Units are S.I. units (second, meters, Newtons, ...)
Angles are in degrees.

endheader
time	pelvis_tilt	pelvis_list	pelvis_rotation	pelvis_tx	pelvis_ty	pelvis_tz	hip_flexion_r	hip_adduction_r	hip_rotation_r	knee_angle_r	ankle_angle_r	subtalar_angle_r	mtp_angle_r	hip_flexion_l	hip_adduction_l	hip_rotation_l	knee_angle_l	ankle_angle_l	subtalar_angle_l	mtp_angle_l	lumbar_extension	lumbar_bending	lumbar_rotation
      7.13000000	      3.09023303	     -3.16963275	      3.47982948	      0.07203610	      0.94401079	      0.20091945	     -2.07424460	      9.10099452	     -2.13102795	     -5.19387166	     10.91723649	     -0.10700850	      0.00000000	     18.42365359	     -2.40566141	     -1.69745683	    -48.98160488	      7.40152730	    -11.28834395	      0.00000000	    -18.60908837	      2.37624315	     -0.75432366
      7.14000000	      2.93495402	     -3.09568161	      3.44396180	      0.08039029	      0.94386229	      0.20064724	     -2.64493589	      9.04558121	     -2.11053022	     -4.88775918	     11.24235776	     -0.05068891	      0.00000000	     18.87055081	     -2.21725555	     -1.72654581	    -46.20915073	      7.69645462	    -11.23032046	      0.00000000	    -18.55306893	      2.32551149	     -0.63460890
      7.15000000	      2.77510434	     -3.08296200	      3.40322655	      0.08874188	      0.94355503	      0.20030742	     -3.19710304	      9.05104772	     -2.10469841	     -4.59798275	     11.52659833	      0.01720267	      0.00000000	     19.21659993	     -2.09013817	     -1.73699894	    -43.21500522	      8.04802729	    -10.83306449	      0.00000000	    -18.48001130	      2.36192827	     -0.50763243
      7.16000000	      2.62676192	     -3.11898712	      3.34450049	      0.09711181	      0.94310876	      0.19993230	     -3.75012001	      9.10495957	     -2.09639036	     -4.32706882	     11.82666662	      0.07824453	      0.00000000	     19.44294290	     -2.02802657	     -1.77683788	    -40.02443547	      8.39539712	    -10.03622576	      0.00000000	    -18.40888685	      2.46032893	     -0.37257622
      7.17000000	      2.49719141	     -3.20297731	      3.26667631	      0.10550759	      0.94253168	      0.19954011	     -4.31483963	      9.20745067	     -2.07120807	     -4.07304204	     12.12888621	      0.14097779	      0.00000000	     19.54672167	     -2.01799267	     -1.80319022	    -36.67356233	      8.71619197	     -8.84269040	      0.00000000	    -18.35038368	      2.61210821	     -0.21508582
      7.18000000	      2.39257463	     -3.33242532	      3.16877467	      0.11395007	      0.94183147	      0.19915381	     -4.90343155	      9.35726514	     -2.02691779	     -3.82892574	     12.45099569	      0.18868602	      0.00000000	     19.52985102	     -2.05956202	     -1.81514945	    -33.20314092	      8.94139334	     -7.35645006	      0.00000000	    -18.30347684	      2.80915705	     -0.03550338
      7.19000000	      2.31328725	     -3.50918934	      3.04802812	      0.12240054	      0.94102590	      0.19875403	     -5.49191294	      9.55020031	     -1.95108671	     -3.64478639	     12.74983046	      0.24242108	      0.00000000	     19.40341965	     -2.14404392	     -1.75771091	    -29.65702038	      9.07031332	     -5.64317346	      0.00000000	    -18.29337226	      3.06606442	      0.16269931
      7.20000000	      2.25549089	     -3.72005946	      2.91100627	      0.13089775	      0.94011853	      0.19836122	     -6.09474132	      9.77425235	     -1.85400987	     -3.48540156	     13.05183027	      0.29327386	      0.00000000	     19.18038851	     -2.26292136	     -1.62780402	    -26.07813602	      9.05780616	     -3.90115759	      0.00000000	    -18.29581062	      3.35896546	      0.38505128
      7.21000000	      2.21695842	     -3.96152249	      2.76155975	      0.13945533	      0.93912343	      0.19796311	     -6.71542978	     10.02427927	     -1.74345538	     -3.34150680	     13.35607325	      0.34954652	      0.00000000	     18.87635087	     -2.41470051	     -1.40506546	    -22.51771813	      8.92098576	     -2.25666388	      0.00000000	    -18.30352240	      3.68230830	      0.64139412
